<mxfile host="app.diagrams.net" modified="2024-01-08T17:35:23.678Z" agent="Mozilla/5.0 (X11; Linux x86_64) AppleWebKit/537.36 (KHTML, like Gecko) Chrome/120.0.0.0 Safari/537.36" version="22.1.16" etag="A3WUqqZNYOmgIiYoJC5s" type="github">
  <diagram name="Sivu-1" id="sYl4Pm5ivETrtB2ATbQu">
    <mxGraphModel>
      <root>
        <mxCell id="0" />
        <mxCell id="1" parent="0" />
      </root>
    </mxGraphModel>
  </diagram>
</mxfile>
